<svg xmlns="http://www.w3.org/2000/svg" viewBox="0 0 512 512" width="512" height="512">
  <defs>
    <linearGradient id="grad1" x1="0%" y1="0%" x2="100%" y2="100%">
      <stop offset="0%" style="stop-color:#3498db;stop-opacity:1" />
      <stop offset="100%" style="stop-color:#2c3e50;stop-opacity:1" />
    </linearGradient>
    <linearGradient id="grad2" x1="0%" y1="0%" x2="0%" y2="100%">
      <stop offset="0%" style="stop-color:#5dade2;stop-opacity:1" />
      <stop offset="100%" style="stop-color:#2980b9;stop-opacity:1" />
    </linearGradient>
    <filter id="shadow" x="-20%" y="-20%" width="140%" height="140%">
      <feDropShadow dx="8" dy="8" stdDeviation="10" flood-color="#1a252f" flood-opacity="0.5"/>
    </filter>
  </defs>
  
  <!-- Background circle -->
  <circle cx="256" cy="256" r="240" fill="url(#grad1)" filter="url(#shadow)"/>
  
  <!-- 3D Letter F -->
  <g filter="url(#shadow)">
    <!-- Main F shape -->
    <path d="M140 120 L140 380 L180 380 L180 280 L320 280 L320 240 L180 240 L180 160 L340 160 L340 120 L140 120" 
          fill="white" stroke="none"/>
    
    <!-- 3D effect layers -->
    <path d="M148 128 L148 372 L180 372 L180 272 L320 272 L320 248 L180 248 L180 168 L340 168 L340 128 L148 128" 
          fill="url(#grad2)" opacity="0.3"/>
    <path d="M144 124 L144 376 L176 376 L176 276 L316 276 L316 244 L176 244 L176 164 L336 164 L336 124 L144 124" 
          fill="#1a252f" opacity="0.2"/>
  </g>
  
  <!-- Highlight -->
  <ellipse cx="200" cy="180" rx="60" ry="30" fill="white" opacity="0.15"/>
</svg>
